<mxfile host="app.diagrams.net" agent="Mozilla/5.0 (Windows NT 10.0; Win64; x64) AppleWebKit/537.36 (KHTML, like Gecko) Chrome/139.0.0.0 Safari/537.36" version="28.1.0">
  <diagram name="PÃ¡gina-1" id="Npvh9hsNk1HyL_i-LP-q">
    <mxGraphModel dx="1042" dy="608" grid="1" gridSize="10" guides="0" tooltips="1" connect="0" arrows="0" fold="1" page="1" pageScale="1" pageWidth="827" pageHeight="1169" math="0" shadow="0">
      <root>
        <mxCell id="0" />
        <mxCell id="1" parent="0" />
        <mxCell id="VUSeeD4ND8PJ7Rkgn92f-1" value="PACIENTE" style="rounded=0;whiteSpace=wrap;html=1;" parent="1" vertex="1">
          <mxGeometry x="92" y="190" width="90" height="40" as="geometry" />
        </mxCell>
        <mxCell id="3nmt7z15WM5bw0n6Wl1P-1" value="Tiene" style="rhombus;whiteSpace=wrap;html=1;" vertex="1" parent="1">
          <mxGeometry x="242" y="190" width="80" height="40" as="geometry" />
        </mxCell>
        <mxCell id="3nmt7z15WM5bw0n6Wl1P-2" value="INTERNACION" style="rounded=0;whiteSpace=wrap;html=1;" vertex="1" parent="1">
          <mxGeometry x="382" y="190" width="90" height="40" as="geometry" />
        </mxCell>
        <mxCell id="3nmt7z15WM5bw0n6Wl1P-3" value="HABITACION" style="rounded=0;whiteSpace=wrap;html=1;" vertex="1" parent="1">
          <mxGeometry x="660" y="190" width="90" height="40" as="geometry" />
        </mxCell>
        <mxCell id="3nmt7z15WM5bw0n6Wl1P-4" value="Ocupa" style="rhombus;whiteSpace=wrap;html=1;" vertex="1" parent="1">
          <mxGeometry x="532" y="190" width="80" height="40" as="geometry" />
        </mxCell>
        <mxCell id="3nmt7z15WM5bw0n6Wl1P-5" value="Atiende" style="rhombus;whiteSpace=wrap;html=1;" vertex="1" parent="1">
          <mxGeometry x="386" y="270" width="80" height="40" as="geometry" />
        </mxCell>
        <mxCell id="3nmt7z15WM5bw0n6Wl1P-6" value="MEDICO" style="rounded=0;whiteSpace=wrap;html=1;" vertex="1" parent="1">
          <mxGeometry x="381" y="360" width="90" height="40" as="geometry" />
        </mxCell>
        <mxCell id="3nmt7z15WM5bw0n6Wl1P-7" value="Registra" style="rhombus;whiteSpace=wrap;html=1;" vertex="1" parent="1">
          <mxGeometry x="97" y="270" width="80" height="40" as="geometry" />
        </mxCell>
        <mxCell id="3nmt7z15WM5bw0n6Wl1P-8" value="ADMINISTRATIVO" style="rounded=0;whiteSpace=wrap;html=1;" vertex="1" parent="1">
          <mxGeometry x="80" y="360" width="110" height="40" as="geometry" />
        </mxCell>
        <mxCell id="3nmt7z15WM5bw0n6Wl1P-13" value="" style="endArrow=none;html=1;rounded=0;exitX=0.999;exitY=0.5;exitDx=0;exitDy=0;exitPerimeter=0;" edge="1" parent="1" source="VUSeeD4ND8PJ7Rkgn92f-1">
          <mxGeometry width="50" height="50" relative="1" as="geometry">
            <mxPoint x="192" y="260" as="sourcePoint" />
            <mxPoint x="242" y="210" as="targetPoint" />
          </mxGeometry>
        </mxCell>
        <mxCell id="3nmt7z15WM5bw0n6Wl1P-14" value="" style="endArrow=none;html=1;rounded=0;exitX=0.999;exitY=0.5;exitDx=0;exitDy=0;exitPerimeter=0;" edge="1" parent="1">
          <mxGeometry width="50" height="50" relative="1" as="geometry">
            <mxPoint x="322" y="210" as="sourcePoint" />
            <mxPoint x="382" y="210" as="targetPoint" />
          </mxGeometry>
        </mxCell>
        <mxCell id="3nmt7z15WM5bw0n6Wl1P-15" value="" style="endArrow=none;html=1;rounded=0;exitX=0.999;exitY=0.5;exitDx=0;exitDy=0;exitPerimeter=0;" edge="1" parent="1">
          <mxGeometry width="50" height="50" relative="1" as="geometry">
            <mxPoint x="472" y="210" as="sourcePoint" />
            <mxPoint x="532" y="210" as="targetPoint" />
          </mxGeometry>
        </mxCell>
        <mxCell id="3nmt7z15WM5bw0n6Wl1P-16" value="" style="endArrow=none;html=1;rounded=0;" edge="1" parent="1">
          <mxGeometry width="50" height="50" relative="1" as="geometry">
            <mxPoint x="137" y="270" as="sourcePoint" />
            <mxPoint x="137" y="230" as="targetPoint" />
          </mxGeometry>
        </mxCell>
        <mxCell id="3nmt7z15WM5bw0n6Wl1P-17" value="" style="endArrow=none;html=1;rounded=0;" edge="1" parent="1">
          <mxGeometry width="50" height="50" relative="1" as="geometry">
            <mxPoint x="426" y="270" as="sourcePoint" />
            <mxPoint x="426" y="230" as="targetPoint" />
          </mxGeometry>
        </mxCell>
        <mxCell id="3nmt7z15WM5bw0n6Wl1P-18" value="" style="endArrow=none;html=1;rounded=0;" edge="1" parent="1">
          <mxGeometry width="50" height="50" relative="1" as="geometry">
            <mxPoint x="426" y="360" as="sourcePoint" />
            <mxPoint x="426" y="310" as="targetPoint" />
          </mxGeometry>
        </mxCell>
        <mxCell id="3nmt7z15WM5bw0n6Wl1P-19" value="" style="endArrow=none;html=1;rounded=0;" edge="1" parent="1">
          <mxGeometry width="50" height="50" relative="1" as="geometry">
            <mxPoint x="137" y="360" as="sourcePoint" />
            <mxPoint x="137" y="310" as="targetPoint" />
          </mxGeometry>
        </mxCell>
        <mxCell id="3nmt7z15WM5bw0n6Wl1P-20" value="" style="endArrow=none;html=1;rounded=0;exitX=0.999;exitY=0.5;exitDx=0;exitDy=0;exitPerimeter=0;entryX=0.002;entryY=0.497;entryDx=0;entryDy=0;entryPerimeter=0;" edge="1" parent="1" target="3nmt7z15WM5bw0n6Wl1P-3">
          <mxGeometry width="50" height="50" relative="1" as="geometry">
            <mxPoint x="612" y="210" as="sourcePoint" />
            <mxPoint x="672" y="210" as="targetPoint" />
          </mxGeometry>
        </mxCell>
        <mxCell id="3nmt7z15WM5bw0n6Wl1P-22" value="dni" style="ellipse;whiteSpace=wrap;html=1;" vertex="1" parent="1">
          <mxGeometry x="10" y="200" width="50" height="30" as="geometry" />
        </mxCell>
        <mxCell id="3nmt7z15WM5bw0n6Wl1P-28" value="nombre" style="ellipse;whiteSpace=wrap;html=1;" vertex="1" parent="1">
          <mxGeometry x="20" y="150" width="50" height="30" as="geometry" />
        </mxCell>
        <mxCell id="3nmt7z15WM5bw0n6Wl1P-29" value="apellido" style="ellipse;whiteSpace=wrap;html=1;" vertex="1" parent="1">
          <mxGeometry x="40" y="110" width="50" height="30" as="geometry" />
        </mxCell>
        <mxCell id="3nmt7z15WM5bw0n6Wl1P-30" value="fechaNac" style="ellipse;whiteSpace=wrap;html=1;" vertex="1" parent="1">
          <mxGeometry x="70" y="70" width="60" height="30" as="geometry" />
        </mxCell>
        <mxCell id="3nmt7z15WM5bw0n6Wl1P-31" value="telefono" style="ellipse;whiteSpace=wrap;html=1;" vertex="1" parent="1">
          <mxGeometry x="140" y="50" width="60" height="30" as="geometry" />
        </mxCell>
        <mxCell id="3nmt7z15WM5bw0n6Wl1P-32" value="direccion" style="ellipse;whiteSpace=wrap;html=1;" vertex="1" parent="1">
          <mxGeometry x="210" y="120" width="60" height="30" as="geometry" />
        </mxCell>
        <mxCell id="3nmt7z15WM5bw0n6Wl1P-33" value="obraSocial" style="ellipse;whiteSpace=wrap;html=1;" vertex="1" parent="1">
          <mxGeometry x="220" y="160" width="70" height="30" as="geometry" />
        </mxCell>
        <mxCell id="3nmt7z15WM5bw0n6Wl1P-34" value="mail" style="ellipse;whiteSpace=wrap;html=1;" vertex="1" parent="1">
          <mxGeometry x="200" y="80" width="50" height="30" as="geometry" />
        </mxCell>
        <mxCell id="3nmt7z15WM5bw0n6Wl1P-36" value="" style="endArrow=none;html=1;rounded=0;entryX=0.146;entryY=0.827;entryDx=0;entryDy=0;entryPerimeter=0;" edge="1" parent="1" target="3nmt7z15WM5bw0n6Wl1P-32">
          <mxGeometry width="50" height="50" relative="1" as="geometry">
            <mxPoint x="180" y="190" as="sourcePoint" />
            <mxPoint x="230" y="140" as="targetPoint" />
          </mxGeometry>
        </mxCell>
        <mxCell id="3nmt7z15WM5bw0n6Wl1P-37" value="" style="endArrow=none;html=1;rounded=0;entryX=0.182;entryY=0.909;entryDx=0;entryDy=0;entryPerimeter=0;exitX=0.867;exitY=0;exitDx=0;exitDy=0;exitPerimeter=0;" edge="1" parent="1" source="VUSeeD4ND8PJ7Rkgn92f-1" target="3nmt7z15WM5bw0n6Wl1P-34">
          <mxGeometry width="50" height="50" relative="1" as="geometry">
            <mxPoint x="150" y="190" as="sourcePoint" />
            <mxPoint x="182" y="140" as="targetPoint" />
          </mxGeometry>
        </mxCell>
        <mxCell id="3nmt7z15WM5bw0n6Wl1P-38" value="" style="endArrow=none;html=1;rounded=0;entryX=0.514;entryY=1.025;entryDx=0;entryDy=0;entryPerimeter=0;exitX=0.756;exitY=0;exitDx=0;exitDy=0;exitPerimeter=0;" edge="1" parent="1" source="VUSeeD4ND8PJ7Rkgn92f-1" target="3nmt7z15WM5bw0n6Wl1P-31">
          <mxGeometry width="50" height="50" relative="1" as="geometry">
            <mxPoint x="150" y="140" as="sourcePoint" />
            <mxPoint x="182" y="90" as="targetPoint" />
          </mxGeometry>
        </mxCell>
        <mxCell id="3nmt7z15WM5bw0n6Wl1P-39" value="" style="endArrow=none;html=1;rounded=0;entryX=0.802;entryY=0.923;entryDx=0;entryDy=0;entryPerimeter=0;exitX=0.563;exitY=-0.003;exitDx=0;exitDy=0;exitPerimeter=0;" edge="1" parent="1" source="VUSeeD4ND8PJ7Rkgn92f-1" target="3nmt7z15WM5bw0n6Wl1P-30">
          <mxGeometry width="50" height="50" relative="1" as="geometry">
            <mxPoint x="130" y="190" as="sourcePoint" />
            <mxPoint x="162" y="140" as="targetPoint" />
          </mxGeometry>
        </mxCell>
        <mxCell id="3nmt7z15WM5bw0n6Wl1P-40" value="" style="endArrow=none;html=1;rounded=0;entryX=0.097;entryY=0.806;entryDx=0;entryDy=0;entryPerimeter=0;exitX=1.003;exitY=0.37;exitDx=0;exitDy=0;exitPerimeter=0;" edge="1" parent="1" source="VUSeeD4ND8PJ7Rkgn92f-1" target="3nmt7z15WM5bw0n6Wl1P-33">
          <mxGeometry width="50" height="50" relative="1" as="geometry">
            <mxPoint x="200" y="240" as="sourcePoint" />
            <mxPoint x="232" y="190" as="targetPoint" />
          </mxGeometry>
        </mxCell>
        <mxCell id="3nmt7z15WM5bw0n6Wl1P-41" value="" style="endArrow=none;html=1;rounded=0;entryX=0.876;entryY=0.835;entryDx=0;entryDy=0;entryPerimeter=0;exitX=0.364;exitY=0.001;exitDx=0;exitDy=0;exitPerimeter=0;" edge="1" parent="1" source="VUSeeD4ND8PJ7Rkgn92f-1" target="3nmt7z15WM5bw0n6Wl1P-29">
          <mxGeometry width="50" height="50" relative="1" as="geometry">
            <mxPoint x="100" y="200" as="sourcePoint" />
            <mxPoint x="132" y="150" as="targetPoint" />
          </mxGeometry>
        </mxCell>
        <mxCell id="3nmt7z15WM5bw0n6Wl1P-42" value="" style="endArrow=none;html=1;rounded=0;entryX=0.98;entryY=0.594;entryDx=0;entryDy=0;entryPerimeter=0;exitX=0.001;exitY=0.035;exitDx=0;exitDy=0;exitPerimeter=0;" edge="1" parent="1" source="VUSeeD4ND8PJ7Rkgn92f-1" target="3nmt7z15WM5bw0n6Wl1P-28">
          <mxGeometry width="50" height="50" relative="1" as="geometry">
            <mxPoint x="80" y="220" as="sourcePoint" />
            <mxPoint x="112" y="170" as="targetPoint" />
          </mxGeometry>
        </mxCell>
        <mxCell id="3nmt7z15WM5bw0n6Wl1P-43" value="" style="endArrow=none;html=1;rounded=0;exitX=0.998;exitY=0.469;exitDx=0;exitDy=0;exitPerimeter=0;entryX=-0.004;entryY=0.467;entryDx=0;entryDy=0;entryPerimeter=0;" edge="1" parent="1" source="3nmt7z15WM5bw0n6Wl1P-22" target="VUSeeD4ND8PJ7Rkgn92f-1">
          <mxGeometry width="50" height="50" relative="1" as="geometry">
            <mxPoint x="70" y="260" as="sourcePoint" />
            <mxPoint x="90" y="210" as="targetPoint" />
          </mxGeometry>
        </mxCell>
        <mxCell id="3nmt7z15WM5bw0n6Wl1P-44" value="fechaIngreso" style="ellipse;whiteSpace=wrap;html=1;" vertex="1" parent="1">
          <mxGeometry x="310" y="110" width="80" height="30" as="geometry" />
        </mxCell>
        <mxCell id="3nmt7z15WM5bw0n6Wl1P-45" value="fechaEgreso" style="ellipse;whiteSpace=wrap;html=1;" vertex="1" parent="1">
          <mxGeometry x="320" y="70" width="80" height="30" as="geometry" />
        </mxCell>
        <mxCell id="3nmt7z15WM5bw0n6Wl1P-46" value="numero Ingreso&amp;nbsp;" style="ellipse;whiteSpace=wrap;html=1;" vertex="1" parent="1">
          <mxGeometry x="410" y="50" width="70" height="30" as="geometry" />
        </mxCell>
        <mxCell id="3nmt7z15WM5bw0n6Wl1P-47" value="Informe" style="ellipse;whiteSpace=wrap;html=1;" vertex="1" parent="1">
          <mxGeometry x="480" y="120" width="60" height="30" as="geometry" />
        </mxCell>
        <mxCell id="3nmt7z15WM5bw0n6Wl1P-49" value="" style="endArrow=none;html=1;rounded=0;entryX=0.204;entryY=0.913;entryDx=0;entryDy=0;entryPerimeter=0;" edge="1" parent="1" target="3nmt7z15WM5bw0n6Wl1P-47">
          <mxGeometry width="50" height="50" relative="1" as="geometry">
            <mxPoint x="456" y="189" as="sourcePoint" />
            <mxPoint x="490" y="150" as="targetPoint" />
          </mxGeometry>
        </mxCell>
        <mxCell id="3nmt7z15WM5bw0n6Wl1P-51" value="" style="endArrow=none;html=1;rounded=0;exitX=0.756;exitY=0;exitDx=0;exitDy=0;exitPerimeter=0;entryX=0.475;entryY=0.993;entryDx=0;entryDy=0;entryPerimeter=0;" edge="1" parent="1" target="3nmt7z15WM5bw0n6Wl1P-46">
          <mxGeometry width="50" height="50" relative="1" as="geometry">
            <mxPoint x="436" y="189" as="sourcePoint" />
            <mxPoint x="440" y="81" as="targetPoint" />
          </mxGeometry>
        </mxCell>
        <mxCell id="3nmt7z15WM5bw0n6Wl1P-52" value="" style="endArrow=none;html=1;rounded=0;entryX=0.928;entryY=0.791;entryDx=0;entryDy=0;entryPerimeter=0;exitX=0.563;exitY=-0.003;exitDx=0;exitDy=0;exitPerimeter=0;" edge="1" parent="1" target="3nmt7z15WM5bw0n6Wl1P-45">
          <mxGeometry width="50" height="50" relative="1" as="geometry">
            <mxPoint x="419" y="189" as="sourcePoint" />
            <mxPoint x="394" y="97" as="targetPoint" />
          </mxGeometry>
        </mxCell>
        <mxCell id="3nmt7z15WM5bw0n6Wl1P-53" value="" style="endArrow=none;html=1;rounded=0;entryX=0.94;entryY=0.741;entryDx=0;entryDy=0;entryPerimeter=0;exitX=0.364;exitY=0.001;exitDx=0;exitDy=0;exitPerimeter=0;" edge="1" parent="1" target="3nmt7z15WM5bw0n6Wl1P-44">
          <mxGeometry width="50" height="50" relative="1" as="geometry">
            <mxPoint x="401" y="189" as="sourcePoint" />
            <mxPoint x="360" y="134" as="targetPoint" />
          </mxGeometry>
        </mxCell>
        <mxCell id="3nmt7z15WM5bw0n6Wl1P-54" value="" style="endArrow=none;html=1;rounded=0;entryX=0.182;entryY=0.909;entryDx=0;entryDy=0;entryPerimeter=0;exitX=0.867;exitY=0;exitDx=0;exitDy=0;exitPerimeter=0;" edge="1" parent="1" target="3nmt7z15WM5bw0n6Wl1P-48">
          <mxGeometry width="50" height="50" relative="1" as="geometry">
            <mxPoint x="446" y="189" as="sourcePoint" />
            <mxPoint x="485" y="106" as="targetPoint" />
          </mxGeometry>
        </mxCell>
        <mxCell id="3nmt7z15WM5bw0n6Wl1P-48" value="Dx" style="ellipse;whiteSpace=wrap;html=1;" vertex="1" parent="1">
          <mxGeometry x="470" y="80" width="50" height="30" as="geometry" />
        </mxCell>
        <mxCell id="3nmt7z15WM5bw0n6Wl1P-55" value="Piso" style="ellipse;whiteSpace=wrap;html=1;" vertex="1" parent="1">
          <mxGeometry x="754" y="160" width="60" height="30" as="geometry" />
        </mxCell>
        <mxCell id="3nmt7z15WM5bw0n6Wl1P-56" value="" style="endArrow=none;html=1;rounded=0;entryX=0.204;entryY=0.913;entryDx=0;entryDy=0;entryPerimeter=0;exitX=0.998;exitY=0.472;exitDx=0;exitDy=0;exitPerimeter=0;" edge="1" parent="1" target="3nmt7z15WM5bw0n6Wl1P-55" source="3nmt7z15WM5bw0n6Wl1P-3">
          <mxGeometry width="50" height="50" relative="1" as="geometry">
            <mxPoint x="754" y="209" as="sourcePoint" />
            <mxPoint x="788" y="170" as="targetPoint" />
          </mxGeometry>
        </mxCell>
        <mxCell id="3nmt7z15WM5bw0n6Wl1P-57" value="Numero" style="ellipse;whiteSpace=wrap;html=1;" vertex="1" parent="1">
          <mxGeometry x="704" y="120" width="60" height="30" as="geometry" />
        </mxCell>
        <mxCell id="3nmt7z15WM5bw0n6Wl1P-58" value="" style="endArrow=none;html=1;rounded=0;entryX=0.387;entryY=1.02;entryDx=0;entryDy=0;entryPerimeter=0;exitX=0.998;exitY=0.472;exitDx=0;exitDy=0;exitPerimeter=0;" edge="1" parent="1" target="3nmt7z15WM5bw0n6Wl1P-57">
          <mxGeometry width="50" height="50" relative="1" as="geometry">
            <mxPoint x="724" y="189" as="sourcePoint" />
            <mxPoint x="762" y="150" as="targetPoint" />
          </mxGeometry>
        </mxCell>
        <mxCell id="3nmt7z15WM5bw0n6Wl1P-59" value="Capacidad" style="ellipse;whiteSpace=wrap;html=1;" vertex="1" parent="1">
          <mxGeometry x="744" y="260" width="60" height="30" as="geometry" />
        </mxCell>
        <mxCell id="3nmt7z15WM5bw0n6Wl1P-60" value="" style="endArrow=none;html=1;rounded=0;entryX=-0.003;entryY=0.484;entryDx=0;entryDy=0;entryPerimeter=0;exitX=0.777;exitY=1.003;exitDx=0;exitDy=0;exitPerimeter=0;" edge="1" parent="1" target="3nmt7z15WM5bw0n6Wl1P-59" source="3nmt7z15WM5bw0n6Wl1P-3">
          <mxGeometry width="50" height="50" relative="1" as="geometry">
            <mxPoint x="744" y="329" as="sourcePoint" />
            <mxPoint x="782" y="290" as="targetPoint" />
          </mxGeometry>
        </mxCell>
        <mxCell id="3nmt7z15WM5bw0n6Wl1P-61" value="sexo" style="ellipse;whiteSpace=wrap;html=1;" vertex="1" parent="1">
          <mxGeometry x="18" y="260" width="60" height="30" as="geometry" />
        </mxCell>
        <mxCell id="3nmt7z15WM5bw0n6Wl1P-62" value="" style="endArrow=none;html=1;rounded=0;" edge="1" parent="1" target="3nmt7z15WM5bw0n6Wl1P-61" source="VUSeeD4ND8PJ7Rkgn92f-1">
          <mxGeometry width="50" height="50" relative="1" as="geometry">
            <mxPoint x="-10" y="329" as="sourcePoint" />
            <mxPoint x="28" y="290" as="targetPoint" />
          </mxGeometry>
        </mxCell>
        <mxCell id="3nmt7z15WM5bw0n6Wl1P-63" value="legajo" style="ellipse;whiteSpace=wrap;html=1;" vertex="1" parent="1">
          <mxGeometry x="180" y="420" width="50" height="30" as="geometry" />
        </mxCell>
        <mxCell id="3nmt7z15WM5bw0n6Wl1P-64" value="nombre" style="ellipse;whiteSpace=wrap;html=1;" vertex="1" parent="1">
          <mxGeometry x="30" y="430" width="50" height="30" as="geometry" />
        </mxCell>
        <mxCell id="3nmt7z15WM5bw0n6Wl1P-65" value="apellido" style="ellipse;whiteSpace=wrap;html=1;" vertex="1" parent="1">
          <mxGeometry x="110" y="440" width="50" height="30" as="geometry" />
        </mxCell>
        <mxCell id="3nmt7z15WM5bw0n6Wl1P-68" value="" style="endArrow=none;html=1;rounded=0;" edge="1" parent="1">
          <mxGeometry width="50" height="50" relative="1" as="geometry">
            <mxPoint x="115" y="400" as="sourcePoint" />
            <mxPoint x="70" y="433" as="targetPoint" />
          </mxGeometry>
        </mxCell>
        <mxCell id="3nmt7z15WM5bw0n6Wl1P-69" value="" style="endArrow=none;html=1;rounded=0;exitX=0.492;exitY=0.985;exitDx=0;exitDy=0;exitPerimeter=0;entryX=0.52;entryY=0.005;entryDx=0;entryDy=0;entryPerimeter=0;" edge="1" parent="1" source="3nmt7z15WM5bw0n6Wl1P-8" target="3nmt7z15WM5bw0n6Wl1P-65">
          <mxGeometry width="50" height="50" relative="1" as="geometry">
            <mxPoint x="195" y="420" as="sourcePoint" />
            <mxPoint x="150" y="453" as="targetPoint" />
          </mxGeometry>
        </mxCell>
        <mxCell id="3nmt7z15WM5bw0n6Wl1P-70" value="" style="endArrow=none;html=1;rounded=0;exitX=0.492;exitY=0.985;exitDx=0;exitDy=0;exitPerimeter=0;" edge="1" parent="1" target="3nmt7z15WM5bw0n6Wl1P-63">
          <mxGeometry width="50" height="50" relative="1" as="geometry">
            <mxPoint x="160" y="400" as="sourcePoint" />
            <mxPoint x="162" y="441" as="targetPoint" />
          </mxGeometry>
        </mxCell>
        <mxCell id="3nmt7z15WM5bw0n6Wl1P-71" value="matricula" style="ellipse;whiteSpace=wrap;html=1;" vertex="1" parent="1">
          <mxGeometry x="470" y="450" width="70" height="30" as="geometry" />
        </mxCell>
        <mxCell id="3nmt7z15WM5bw0n6Wl1P-72" value="nombre" style="ellipse;whiteSpace=wrap;html=1;" vertex="1" parent="1">
          <mxGeometry x="320" y="431" width="50" height="30" as="geometry" />
        </mxCell>
        <mxCell id="3nmt7z15WM5bw0n6Wl1P-73" value="apellido" style="ellipse;whiteSpace=wrap;html=1;" vertex="1" parent="1">
          <mxGeometry x="400" y="441" width="50" height="30" as="geometry" />
        </mxCell>
        <mxCell id="3nmt7z15WM5bw0n6Wl1P-74" value="" style="endArrow=none;html=1;rounded=0;" edge="1" parent="1">
          <mxGeometry width="50" height="50" relative="1" as="geometry">
            <mxPoint x="405" y="401" as="sourcePoint" />
            <mxPoint x="360" y="434" as="targetPoint" />
          </mxGeometry>
        </mxCell>
        <mxCell id="3nmt7z15WM5bw0n6Wl1P-75" value="" style="endArrow=none;html=1;rounded=0;exitX=0.492;exitY=0.985;exitDx=0;exitDy=0;exitPerimeter=0;entryX=0.52;entryY=0.005;entryDx=0;entryDy=0;entryPerimeter=0;" edge="1" parent="1" target="3nmt7z15WM5bw0n6Wl1P-73">
          <mxGeometry width="50" height="50" relative="1" as="geometry">
            <mxPoint x="424" y="400" as="sourcePoint" />
            <mxPoint x="440" y="454" as="targetPoint" />
          </mxGeometry>
        </mxCell>
        <mxCell id="3nmt7z15WM5bw0n6Wl1P-76" value="" style="endArrow=none;html=1;rounded=0;exitX=0.724;exitY=1.006;exitDx=0;exitDy=0;exitPerimeter=0;entryX=0.186;entryY=0.106;entryDx=0;entryDy=0;entryPerimeter=0;" edge="1" parent="1" target="3nmt7z15WM5bw0n6Wl1P-71" source="3nmt7z15WM5bw0n6Wl1P-6">
          <mxGeometry width="50" height="50" relative="1" as="geometry">
            <mxPoint x="450" y="401" as="sourcePoint" />
            <mxPoint x="480" y="424" as="targetPoint" />
          </mxGeometry>
        </mxCell>
        <mxCell id="3nmt7z15WM5bw0n6Wl1P-77" value="especialidad" style="ellipse;whiteSpace=wrap;html=1;" vertex="1" parent="1">
          <mxGeometry x="510" y="410" width="80" height="30" as="geometry" />
        </mxCell>
        <mxCell id="3nmt7z15WM5bw0n6Wl1P-78" value="" style="endArrow=none;html=1;rounded=0;exitX=0.492;exitY=0.985;exitDx=0;exitDy=0;exitPerimeter=0;entryX=0;entryY=0.333;entryDx=0;entryDy=0;entryPerimeter=0;" edge="1" parent="1" target="3nmt7z15WM5bw0n6Wl1P-77">
          <mxGeometry width="50" height="50" relative="1" as="geometry">
            <mxPoint x="460" y="400" as="sourcePoint" />
            <mxPoint x="493" y="452" as="targetPoint" />
          </mxGeometry>
        </mxCell>
      </root>
    </mxGraphModel>
  </diagram>
</mxfile>
